<?xml version="1.0" standalone="no"?>
<!DOCTYPE svg PUBLIC "-//W3C//DTD SVG 20010904//EN"
 "http://www.w3.org/TR/2001/REC-SVG-20010904/DTD/svg10.dtd">
<svg version="1.0" xmlns="http://www.w3.org/2000/svg"
 width="5504.000000pt" height="3072.000000pt" viewBox="0 0 5504.000000 3072.000000"
 preserveAspectRatio="xMidYMid meet">
<metadata>
Created by potrace 1.16, written by Peter Selinger 2001-2019
</metadata>
<g transform="translate(0.000000,3072.000000) scale(1.000000,-1.000000)"
fill="#000000" stroke="none">
<path d="M2008 2942 l-1 -1 0 -196 0 -195 -17 0 -18 0 0 -4 0 -4 18 0 17 0 0
-210 0 -211 -17 0 -18 0 -1 -2 0 -3 0 -2 1 -2 18 0 17 0 0 -87 1 -86 9 -1 10
0 0 -81 0 -81 -20 0 -21 0 -1 -2 -1 -2 1 -2 1 -3 10 0 11 0 0 -176 0 -176 -3
0 -3 -1 -8 0 -8 0 0 -4 1 -3 20 -1 21 0 0 -146 0 -145 -9 0 -9 0 -1 -1 -1 -1
0 -94 0 -93 -17 0 -16 0 0 -4 0 -4 16 -1 17 0 0 -208 0 -208 -16 0 -16 0 -2
-1 -1 -1 0 -3 1 -2 17 -1 17 0 0 -189 0 -189 2 0 1 -1 887 0 888 0 0 2 1 1 0
1412 0 1412 -1 1 -1 1 -888 0 -887 0 -1 -1z m1769 -1413 l0 -1406 -740 0 -739
0 0 23 0 23 96 0 96 0 625 0 625 1 0 461 0 462 -721 0 -721 0 0 155 0 154 10
0 10 0 0 -29 1 -28 0 -5 0 -4 0 -108 0 -107 1 -1 2 -1 709 0 709 1 0 196 0
197 -87 0 -87 0 -1 10 0 10 87 0 88 1 0 219 0 219 -78 0 -79 0 0 -119 0 -119
-1 -5 0 -5 0 -35 0 -34 -13 0 -13 0 0 6 0 6 5 0 5 0 3 1 3 0 0 54 0 54 -8 0
-8 0 0 6 0 6 8 0 8 0 0 92 0 92 -146 0 -146 0 -1 -2 0 -2 0 -90 1 -89 58 -1
58 0 0 -6 0 -6 -65 0 -65 0 0 91 0 91 0 7 0 7 -219 0 -218 0 -1 -33 0 -32 1
-9 1 -9 1 -1 2 -1 1 1 1 1 1 37 0 38 211 0 211 0 0 -98 1 -98 72 0 73 0 0 14
0 14 -2 0 -1 0 -57 0 -56 0 0 84 0 84 138 0 138 0 0 -84 0 -84 -9 0 -8 0 0
-14 1 -14 8 -1 8 0 0 -35 -1 -35 0 -11 0 -10 -8 0 -8 0 0 -15 1 -14 21 0 22 0
0 158 1 159 69 0 70 0 0 -211 0 -211 -86 0 -87 0 -1 -1 -1 -2 0 -17 1 -17 87
-1 87 0 0 -189 0 -188 -77 0 -78 0 0 77 0 77 9 0 10 0 1 1 2 0 0 16 0 15 -399
0 -399 0 -1 -93 0 -93 -237 0 -237 0 0 104 1 104 0 4 0 5 -1 33 0 33 -18 0
-17 0 -1 -162 0 -161 1 -2 1 -1 10 0 10 0 -1 -191 0 -190 0 -263 0 -263 -10 0
-9 0 -1 -5 -1 -4 0 -23 0 -22 -137 0 -137 0 0 80 0 80 9 0 9 1 1 0 1 1 0 104
0 104 19 0 18 0 0 4 0 4 -19 0 -18 0 0 208 0 208 17 0 18 0 1 1 1 1 0 3 0 2
-2 1 -2 1 -16 0 -16 0 -1 240 0 240 11 0 12 0 1 1 1 1 0 3 0 2 -1 1 -1 0 -12
0 -11 0 0 176 0 177 12 0 12 1 0 4 0 4 -12 0 -12 0 0 168 0 168 19 0 19 1 0 4
0 4 -19 0 -19 0 0 211 0 210 19 0 19 1 0 3 0 4 -19 0 -19 0 0 169 0 169 245 0
245 0 0 -506 0 -506 -98 0 -98 0 -1 -1 -2 0 0 13 0 13 -1 1 -1 1 -17 0 -17 0
-1 -154 0 -154 1 -2 1 -1 17 0 17 1 0 122 0 122 100 0 100 0 0 -276 0 -276 1
-2 1 -2 23 0 23 0 2 1 2 1 0 14 0 14 -1 1 -2 1 -13 0 -13 1 0 0 0 1 0 787 0
786 124 0 123 0 0 -261 1 -261 0 -11 0 -10 1 -1 1 -1 19 0 19 1 0 103 0 104
85 0 85 1 0 52 0 53 -15 0 -15 0 0 -38 0 -38 -70 0 -70 0 0 154 0 153 70 0 70
0 0 -72 1 -72 14 -1 14 0 0 0 0 1 1 72 1 72 362 0 363 0 0 -257 0 -257 -363 0
-363 0 0 6 0 6 -15 0 -15 0 0 -28 1 -27 13 0 14 0 1 5 1 6 1 1 0 0 174 0 175
0 2 0 2 0 0 -3 1 -2 10 0 11 0 0 2 0 3 2 0 2 0 47 0 47 0 0 -6 1 -6 14 -1 14
0 0 6 0 7 111 0 112 0 -1 -175 0 -174 -171 0 -171 0 -1 89 0 88 61 0 60 0 0
22 0 23 -14 0 -14 0 -1 -8 0 -7 -61 0 -61 0 0 -15 -1 -15 0 -89 0 -88 -6 0 -6
0 -170 0 -169 0 0 106 0 107 -15 0 -14 0 -1 -100 0 -99 -90 -1 -90 0 0 -6 -1
-5 0 -245 1 -245 1 -1 1 -1 315 0 315 1 0 18 0 18 -2 0 -2 1 -68 0 -68 0 0 52
0 52 70 0 70 0 0 2 1 1 0 12 0 12 -1 1 0 2 -85 0 -85 0 0 -15 0 -15 0 -52 0
-52 -211 0 -211 0 0 122 0 122 -1 1 -1 1 -14 0 -13 0 -2 1 -2 2 0 48 0 48 0
56 1 56 90 0 90 1 0 99 0 100 6 0 7 0 0 -107 1 -106 184 0 184 0 0 103 0 103
2 0 3 0 57 0 57 0 2 1 1 1 0 7 0 6 7 0 6 0 0 -13 0 -14 -3 0 -3 0 -57 0 -57 0
-1 -1 -1 -2 0 -96 1 -95 180 -1 180 0 0 184 0 183 -119 0 -118 0 -1 -7 0 -6
-7 0 -7 0 0 6 0 7 -56 0 -56 0 -1 -4 0 -3 -4 -1 -4 0 0 4 0 4 -184 0 -183 0
-2 -1 -1 -1 0 -6 0 -5 -6 0 -7 0 0 20 0 19 7 0 6 0 0 -5 0 -6 1 -1 2 -1 370 0
370 1 0 265 0 266 -361 0 -361 0 -10 -1 -10 0 -1 -73 0 -72 -6 0 -6 1 -1 72 0
72 -11 0 -10 1 -67 0 -67 0 0 -1 -1 0 0 -161 -1 -160 1 -1 0 -2 78 0 78 0 0 1
0 2 0 37 0 37 6 0 7 0 0 -45 0 -44 -85 -1 -84 0 0 -18 -1 -17 1 -86 0 -86 -12
0 -12 0 0 272 0 271 -2 1 -1 0 -129 0 -129 1 -2 -1 -2 -1 0 -794 0 -795 2 -1
2 -1 13 0 13 0 -1 -7 0 -7 -17 -1 -17 0 0 277 0 278 -1 1 -1 1 -105 0 -105 0
-2 -1 -2 -1 0 -122 0 -122 -10 0 -10 0 0 148 0 147 9 0 10 0 0 -1 1 -1 0 -12
0 -11 1 -2 1 -1 106 0 106 0 1 1 1 2 0 512 0 513 -2 1 -1 1 -257 0 -256 0 -1
0 -1 0 0 19 0 18 880 0 881 0 0 -1405z m-1750 1190 l0 -169 -6 0 -6 0 0 167 1
167 0 2 0 2 6 0 5 0 0 -169z m0 -387 l0 -211 -6 0 -6 0 1 208 0 209 0 2 0 2 6
0 5 0 0 -210z m0 -303 l0 -83 -6 0 -5 1 -1 81 0 81 0 2 1 1 5 0 6 0 0 -83z
m801 -372 l0 -124 219 0 219 0 0 67 0 67 77 0 77 0 0 -6 0 -6 -70 0 -70 0 0
-61 0 -60 69 -1 70 0 0 -10 0 -10 -305 0 -305 0 -2 0 -2 0 -1 133 0 134 12 0
12 0 0 -123z m-801 -66 l0 -176 -3 0 -3 0 -3 0 -3 0 0 176 0 176 6 0 6 0 0
-176z m1563 -294 l0 -7 -391 -1 -391 0 0 8 0 8 391 0 391 0 0 -8z m-706 -20
l0 -5 0 -72 0 -73 -16 0 -17 0 0 77 0 77 16 0 17 1 0 -1 0 0 0 -4z m598 -73
l0 -77 -17 0 -17 0 0 77 0 77 0 0 1 1 16 -1 17 0 0 -77z m-640 0 l0 -76 -17
-1 -17 0 0 77 0 77 17 0 17 0 0 -77z m85 0 l0 -77 -17 0 -17 0 0 77 1 77 17 0
17 0 -1 -77z m43 0 l0 -77 -17 0 -17 0 0 77 0 77 17 0 17 0 0 -77z m43 0 l0
-76 -17 -1 -17 0 0 77 0 77 17 0 17 0 0 -77z m42 0 l0 -77 -16 0 -17 0 0 77 0
77 17 0 16 0 0 -77z m43 0 l0 -77 -17 0 -17 0 0 77 0 77 17 0 17 0 0 -77z m43
0 l0 -76 -17 -1 -17 0 0 77 0 77 17 0 17 0 0 -77z m42 0 l0 -77 -17 0 -16 1
-1 76 0 77 17 0 17 0 0 -77z m43 0 l0 -77 -17 0 -17 0 0 77 0 77 17 0 17 0 0
-77z m43 0 l0 -77 -17 0 -17 0 0 77 0 77 17 0 17 0 0 -77z m42 18 l0 -59 0
-18 0 -18 -16 0 -17 0 0 77 0 77 17 0 17 0 -1 -59z m43 -18 l0 -77 -17 0 -17
0 0 77 0 77 17 0 17 0 0 -77z m43 0 l0 -76 -17 -1 -17 0 0 77 0 77 17 0 17 0
0 -77z m42 0 l0 -77 -16 0 -17 0 0 11 0 12 0 31 0 31 0 34 0 35 17 0 16 0 0
-77z m85 2 l0 -75 0 -2 0 -2 -16 0 -17 0 0 77 0 77 17 0 17 0 -1 -75z m43 -2
l0 -77 -17 0 -17 0 0 77 0 77 17 0 17 0 0 -77z m-1540 -188 l0 -90 -6 0 -6 0
0 90 0 90 6 0 6 0 0 -90z m1704 -385 l0 -453 -706 0 -706 0 0 453 0 453 706 0
706 0 0 -453z m-1704 78 l0 -208 -6 0 -6 0 0 208 0 208 6 0 6 0 0 -208z m0
-317 l0 -100 -4 -1 -3 0 -3 0 -2 1 0 101 0 100 6 0 6 0 0 -101z"/>
</g>
</svg>
